<!--?xml version="1.0" encoding="utf-8"?-->
<!-- Generator: Adobe Illustrator 18.1.1, SVG Export Plug-In . SVG Version: 6.00 Build 0)  -->

<svg version="1.1" id="_x31_0" xmlns="http://www.w3.org/2000/svg" xmlns:xlink="http://www.w3.org/1999/xlink" x="0px" y="0px" viewBox="0 0 512 512" style="width: 256px; height: 256px; opacity: 1;" xml:space="preserve">
<style type="text/css">
	.st0{fill:#374149;}
</style>
<g>
	<path class="st0" d="M372.098,300.496v-17.008v-50.926c0-43.637-9.742-86.09-28.953-126.187l-36.691-76.582
		C297.782,11.691,277.977,0,256,0c-21.98,0-41.785,11.691-50.457,29.789l-36.691,76.59c-19.211,40.094-28.95,82.546-28.95,126.183
		v50.926v17.008c-39.004,27.73-62.195,70.058-62.195,115.27v81.386c0,8.313,10.203,13.379,18.07,8.973l81.442-73.484v-6.102h63.535
		l4.695,74.332c0.394,6.246,6.16,11.129,13.141,11.129c6.98,0,12.746-4.883,13.14-11.129l4.699-74.332h58.352v6.102l81.438,73.484
		c7.867,4.406,18.074-0.66,18.074-8.973v-81.386C434.293,370.554,411.098,328.226,372.098,300.496z M334.782,393.098h-53.16
		l-3.082-0.012l4.141-65.554c0.43-6.766-5.578-12.461-13.141-12.461h-21.898c-7.562,0-13.57,5.695-13.141,12.461l3.89,61.633
		l0.242,3.934h-61.414v-114.66l0,0v-45.875c0-38.851,8.82-77.297,25.922-112.992l36.691-76.586c3.051-6.363,9.61-9.546,16.168-9.546
		s13.118,3.183,16.164,9.546l36.692,76.586c17.105,35.695,25.926,74.141,25.926,112.992v45.875v114.469V393.098z" style="fill: rgb(75, 75, 75);"></path>
	<path class="st0" d="M256,174.726c-27.402,0-49.695,22.293-49.695,49.695s22.293,49.695,49.695,49.695s49.695-22.293,49.695-49.695
		S283.402,174.726,256,174.726z M256,243.465c-10.5,0-19.042-8.543-19.042-19.043S245.5,205.379,256,205.379
		c10.5,0,19.043,8.542,19.043,19.042S266.5,243.465,256,243.465z" style="fill: rgb(75, 75, 75);"></path>
</g>
</svg>
